<?xml version="1.0" standalone="no"?>
<!DOCTYPE svg PUBLIC "-//W3C//DTD SVG 20010904//EN"
 "http://www.w3.org/TR/2001/REC-SVG-20010904/DTD/svg10.dtd">
<svg version="1.0" xmlns="http://www.w3.org/2000/svg"
 width="400.000000pt" height="400.000000pt" viewBox="0 0 400.000000 400.000000"
 preserveAspectRatio="xMidYMid meet">
<metadata>
Created by potrace 1.14, written by Peter Selinger 2001-2017
</metadata>
<g transform="translate(0.000000,400.000000) scale(0.100000,-0.100000)"
fill="#000000" stroke="none">
<path d="M0 2000 l0 -2000 747 2 747 3 9 45 c12 68 57 210 65 210 29 -1 31
-18 12 -76 -11 -32 -26 -87 -34 -122 l-14 -62 1234 0 1234 0 0 465 c0 256 -4
465 -8 465 -15 0 -161 -164 -209 -236 -27 -39 -60 -85 -74 -104 l-26 -32 -59
21 c-110 42 -213 61 -326 61 l-108 0 -5 27 c-20 92 -29 118 -70 195 -37 70
-55 92 -98 122 -28 20 -73 43 -99 52 -42 14 -48 19 -48 44 0 36 33 77 68 85
33 7 78 -8 108 -36 12 -11 35 -22 50 -24 18 -2 43 -19 68 -46 23 -24 50 -49
61 -54 11 -6 27 -25 35 -43 20 -42 45 -38 46 8 2 50 28 113 77 183 23 33 56
85 73 115 17 31 38 58 47 61 8 3 31 29 50 56 18 28 45 56 59 64 23 13 29 13
52 -2 14 -10 26 -25 26 -35 0 -9 -29 -55 -65 -101 -36 -46 -65 -87 -65 -92 0
-5 -29 -47 -65 -94 -36 -46 -65 -89 -65 -94 0 -5 -9 -11 -20 -13 -33 -5 -24
-21 18 -34 22 -6 66 -27 98 -47 74 -45 233 -112 242 -102 4 4 1 10 -5 12 -7 3
-13 11 -13 18 0 16 66 75 83 75 7 0 23 13 35 30 13 16 29 30 38 30 8 0 33 14
55 32 37 29 39 35 39 85 0 50 -1 53 -19 43 -11 -5 -39 -31 -63 -56 -24 -26
-82 -86 -129 -134 l-86 -87 -52 21 c-28 12 -51 26 -51 32 0 6 26 39 58 73 31
34 70 78 85 97 16 19 37 34 47 34 10 0 22 9 25 20 4 11 27 36 52 55 48 36 98
46 121 23 9 -9 12 296 12 1375 l0 1387 -2000 0 -2000 0 0 -2000z m1491 780
c117 -163 251 -248 478 -301 134 -32 182 -54 231 -105 41 -42 42 -45 15 -31
-66 32 -256 73 -369 79 -54 3 -60 1 -79 -24 -17 -22 -19 -33 -11 -55 12 -34
35 -40 207 -53 150 -10 208 -28 275 -84 38 -33 40 -55 10 -83 l-23 -21 -155
29 c-152 28 -284 37 -294 20 -3 -4 -29 0 -58 10 -29 10 -70 18 -90 19 -27 0
-40 6 -48 20 -16 30 -54 46 -225 95 -182 52 -243 62 -275 45 -20 -11 -22 -10
-17 5 4 9 7 23 7 31 0 8 7 14 15 14 8 0 49 14 92 31 104 41 165 38 283 -15
108 -49 170 -66 192 -55 22 12 31 42 23 78 -5 25 -16 33 -73 54 -99 37 -240
70 -297 70 -43 0 -63 -8 -127 -47 -42 -25 -79 -46 -81 -46 -15 0 58 222 112
342 27 61 32 66 72 76 24 6 60 24 79 40 l35 29 25 -51 c14 -29 46 -81 71 -116z
m-316 -513 c-16 -12 -38 -30 -47 -39 -19 -19 -25 -58 -9 -58 5 0 12 -9 16 -19
6 -18 71 -52 129 -65 16 -4 70 -25 121 -47 51 -21 100 -36 109 -33 39 15 3
-61 -37 -77 -36 -15 -129 -2 -265 38 -97 28 -139 53 -148 88 -6 24 19 172 36
213 8 19 17 22 67 22 l58 -1 -30 -22z m204 -28 c78 -22 114 -38 135 -59 17
-16 27 -32 24 -35 -3 -4 -44 5 -90 20 -45 14 -128 33 -183 41 -55 8 -101 17
-103 19 -8 8 64 45 87 45 12 0 71 -14 130 -31z m-105 -50 l75 -11 -6 -32 c-3
-17 -7 -33 -9 -34 -4 -5 -147 40 -161 51 -20 14 -15 37 7 37 10 0 53 -5 94
-11z m417 -70 c49 -17 55 -26 34 -49 -14 -16 -19 -39 -21 -111 -2 -87 -1 -92
27 -123 16 -19 52 -42 83 -54 82 -31 283 -74 358 -76 91 -2 115 17 146 115 12
40 25 75 27 77 2 3 19 2 38 -2 l34 -6 1 -112 2 -112 -36 -37 c-25 -26 -35 -43
-30 -54 5 -15 18 -17 99 -12 50 3 102 8 115 12 16 6 22 3 22 -9 0 -34 156 -10
253 39 l47 24 -14 -27 c-8 -15 -31 -43 -51 -62 -20 -19 -50 -61 -66 -92 -35
-69 -55 -82 -126 -76 -46 4 -60 10 -92 42 -25 25 -43 35 -54 30 -21 -8 -21
-19 -1 -53 16 -27 15 -30 -40 -137 -129 -252 -172 -292 -441 -404 -55 -22
-129 -57 -164 -76 -36 -20 -99 -50 -140 -67 -72 -29 -83 -31 -211 -31 -131 0
-137 1 -200 32 -127 62 -149 90 -248 327 -60 144 -78 207 -87 300 -10 113 23
647 41 677 3 5 13 0 21 -11 21 -31 79 -57 190 -87 131 -34 240 -42 283 -20 33
16 33 16 15 -4 -24 -27 -7 -48 23 -29 51 32 91 179 68 247 -8 20 -5 22 26 22
19 0 50 -5 69 -11z m359 -33 l114 -21 33 -44 c19 -24 32 -45 31 -46 -2 -2 -43
10 -92 27 -98 33 -266 68 -323 68 -30 0 -35 3 -25 13 22 22 76 36 112 30 19
-3 87 -15 150 -27z m356 -24 c-25 -48 -41 -56 -55 -26 -6 15 -10 27 -9 28 7 4
64 24 71 25 4 1 1 -12 -7 -27z m-493 -21 c21 -3 38 -9 38 -13 -1 -5 -1 -21 -1
-38 l0 -30 -64 0 c-49 0 -69 5 -90 21 -23 18 -35 57 -21 71 6 6 68 1 138 -11z
m384 -22 c19 -17 16 -36 -7 -42 -24 -6 -27 -42 -5 -55 14 -7 13 -16 -5 -75
-32 -104 -61 -114 -240 -77 -221 45 -290 81 -290 151 l0 39 33 -20 c24 -15 50
-20 102 -20 39 0 105 -7 148 -15 43 -8 98 -15 121 -15 48 0 106 25 106 45 0 7
-13 38 -29 68 l-29 55 41 -14 c22 -8 46 -19 54 -25z m-101 -77 c-18 -18 -29
-12 -20 11 3 9 12 13 21 10 13 -5 13 -8 -1 -21z m1672 -568 c12 -8 22 -22 22
-31 0 -8 -30 -48 -67 -88 -38 -39 -113 -124 -168 -188 l-100 -116 -40 24 c-22
13 -41 30 -43 38 -3 13 77 120 118 157 9 8 29 35 44 59 15 24 36 46 47 48 10
3 21 14 24 24 10 30 86 89 115 89 14 0 36 -7 48 -16z m-1859 -643 c-6 -2 -93
-58 -193 -124 l-180 -120 -48 52 c-61 67 -62 81 -3 81 49 0 157 39 270 97 39
20 90 47 115 59 l45 22 3 -31 c2 -19 -1 -33 -9 -36z m-360 -340 c11 -7 11 -17
-4 -60 -14 -42 -21 -51 -40 -51 -37 0 -39 16 -8 70 30 54 31 54 52 41z"/>
<path d="M1396 1732 c-38 -40 -60 -116 -46 -158 14 -42 69 -90 117 -103 59
-17 122 -14 130 5 8 23 -14 34 -70 34 -122 0 -177 97 -107 185 17 21 29 43 27
49 -7 20 -23 16 -51 -12z"/>
<path d="M1280 1683 c-27 -31 -31 -41 -26 -72 8 -53 76 -98 76 -51 0 11 -7 23
-15 26 -24 9 -18 55 11 85 26 27 26 49 -1 49 -7 0 -27 -16 -45 -37z"/>
<path d="M1729 1603 c-1 -5 -2 -28 -3 -53 -1 -37 -5 -46 -22 -48 -11 -2 -28 6
-39 18 -22 24 -75 28 -75 5 0 -9 10 -19 23 -24 13 -5 29 -16 36 -25 22 -26 78
-20 106 10 27 29 31 57 15 98 -9 24 -38 37 -41 19z"/>
<path d="M1189 1313 c-16 -4 -39 -43 -39 -65 0 -5 7 -8 15 -4 10 3 21 -7 34
-32 23 -45 42 -63 99 -91 57 -29 202 -61 277 -61 64 0 157 21 180 40 8 7 22
10 30 6 18 -6 41 34 33 56 -9 21 -60 46 -65 31 -3 -7 -14 -13 -26 -13 -36 0
-239 41 -327 66 -47 13 -105 27 -129 30 -31 5 -45 12 -48 25 -3 11 -8 18 -12
18 -3 -1 -13 -3 -22 -6z m121 -88 c39 -8 80 -20 90 -25 16 -9 72 -20 295 -60
39 -6 39 -7 12 -14 -44 -13 -456 79 -472 105 -8 12 -9 12 75 -6z m271 -123
c-50 -7 -272 45 -285 67 -3 4 66 -9 152 -28 86 -20 146 -38 133 -39z"/>
<path d="M1270 1064 c0 -29 183 -90 246 -82 54 6 36 25 -28 30 -35 3 -90 15
-123 27 -90 33 -95 34 -95 25z"/>
</g>
</svg>
